<svg xmlns="http://www.w3.org/2000/svg" xmlns:xlink="http://www.w3.org/1999/xlink" viewBox="0 0 24 24"><g fill="none" stroke="currentColor" stroke-width="2" stroke-linecap="round" stroke-linejoin="round"><path d="M9 9V8a3 3 0 0 1 6 0v1"></path><path d="M8 9h8a6 6 0 0 1 1 3v3a5 5 0 0 1-10 0v-3a6 6 0 0 1 1-3"></path><path d="M3 13h4"></path><path d="M17 13h4"></path><path d="M12 20v-6"></path><path d="M4 19l3.35-2"></path><path d="M20 19l-3.35-2"></path><path d="M4 7l3.75 2.4"></path><path d="M20 7l-3.75 2.4"></path></g></svg>