<?xml version="1.0" standalone="no"?><!DOCTYPE svg PUBLIC "-//W3C//DTD SVG 1.1//EN" "http://www.w3.org/Graphics/SVG/1.1/DTD/svg11.dtd"><svg t="1715096925270" class="icon" viewBox="0 0 1024 1024" version="1.1" xmlns="http://www.w3.org/2000/svg" p-id="8337" width="200" height="200" xmlns:xlink="http://www.w3.org/1999/xlink"><path d="M635.904 445.568a96 96 0 0 1 95.552 86.784l0.448 9.216v288a96 96 0 0 1-86.784 95.552l-9.216 0.448H388.096a96 96 0 0 1-95.552-86.784l-0.448-9.216v-288A96 96 0 0 1 378.88 446.016l9.216-0.448h247.808z m32 282.496H356.096v101.504a32 32 0 0 0 26.24 31.488l5.76 0.512h247.808a32 32 0 0 0 31.488-26.24l0.512-5.76v-101.504z m-67.328 37.696a32 32 0 0 1 5.76 63.488l-5.76 0.512h-64a32 32 0 0 1-5.76-63.488l5.76-0.512h64zM511.68 98.304a297.216 297.216 0 0 1 286.08 216.448l1.536 6.272 2.816 0.768a221.76 221.76 0 0 1 155.648 199.552l0.32 12.16a219.2 219.2 0 0 1-110.144 190.4 32 32 0 1 1-31.872-55.552 155.2 155.2 0 0 0 78.016-134.784c0-75.52-53.568-140.48-127.68-154.88a32 32 0 0 1-25.408-25.6 233.216 233.216 0 0 0-458.624 0 32 32 0 0 1-25.344 25.6A157.184 157.184 0 0 0 129.92 533.76a154.944 154.944 0 0 0 77.952 135.232 32 32 0 0 1-31.744 55.552A218.88 218.88 0 0 1 65.92 533.696a221.184 221.184 0 0 1 155.328-211.84l2.752-0.832 1.664-6.272A297.28 297.28 0 0 1 497.856 98.56l13.824-0.32z m124.224 411.264H388.096a32 32 0 0 0-31.488 26.24l-0.512 5.76v122.496h311.808V541.568a32 32 0 0 0-26.24-31.488l-5.76-0.512z m-35.328 50.432a32 32 0 0 1 5.76 63.488l-5.76 0.512h-64a32 32 0 0 1-5.76-63.488l5.76-0.512h64z" p-id="8338" fill="#ffffff"></path></svg>